<svg width="24" height="24" viewBox="0 0 24 24" fill="none" xmlns="http://www.w3.org/2000/svg">
<path d="M6.5 22C5.90905 22 5.32389 21.8836 4.77792 21.6575C4.23196 21.4313 3.73588 21.0998 3.31802 20.682C2.90016 20.2641 2.56869 19.768 2.34254 19.2221C2.1164 18.6761 2 18.0909 2 17.5C2 16.9091 2.1164 16.3239 2.34254 15.7779C2.56869 15.232 2.90016 14.7359 3.31802 14.318C3.73588 13.9002 4.23196 13.5687 4.77792 13.3425C5.32389 13.1164 5.90905 13 6.5 13C7.69347 13 8.83807 13.4741 9.68198 14.318C10.5259 15.1619 11 16.3065 11 17.5C11 18.6935 10.5259 19.8381 9.68198 20.682C8.83807 21.5259 7.69347 22 6.5 22ZM17.5 22C16.9091 22 16.3239 21.8836 15.7779 21.6575C15.232 21.4313 14.7359 21.0998 14.318 20.682C13.9002 20.2641 13.5687 19.768 13.3425 19.2221C13.1164 18.6761 13 18.0909 13 17.5C13 16.9091 13.1164 16.3239 13.3425 15.7779C13.5687 15.232 13.9002 14.7359 14.318 14.318C14.7359 13.9002 15.232 13.5687 15.7779 13.3425C16.3239 13.1164 16.9091 13 17.5 13C18.6935 13 19.8381 13.4741 20.682 14.318C21.5259 15.1619 22 16.3065 22 17.5C22 18.6935 21.5259 19.8381 20.682 20.682C19.8381 21.5259 18.6935 22 17.5 22ZM6.5 11C5.90905 11 5.32389 10.8836 4.77792 10.6575C4.23196 10.4313 3.73588 10.0998 3.31802 9.68198C2.90016 9.26412 2.56869 8.76804 2.34254 8.22207C2.1164 7.67611 2 7.09095 2 6.5C2 5.90905 2.1164 5.32389 2.34254 4.77792C2.56869 4.23196 2.90016 3.73588 3.31802 3.31802C3.73588 2.90016 4.23196 2.56869 4.77792 2.34254C5.32389 2.1164 5.90905 2 6.5 2C7.69347 2 8.83807 2.47411 9.68198 3.31802C10.5259 4.16193 11 5.30653 11 6.5C11 7.69347 10.5259 8.83807 9.68198 9.68198C8.83807 10.5259 7.69347 11 6.5 11ZM17.5 11C16.9091 11 16.3239 10.8836 15.7779 10.6575C15.232 10.4313 14.7359 10.0998 14.318 9.68198C13.9002 9.26412 13.5687 8.76804 13.3425 8.22207C13.1164 7.67611 13 7.09095 13 6.5C13 5.90905 13.1164 5.32389 13.3425 4.77792C13.5687 4.23196 13.9002 3.73588 14.318 3.31802C14.7359 2.90016 15.232 2.56869 15.7779 2.34254C16.3239 2.1164 16.9091 2 17.5 2C18.6935 2 19.8381 2.47411 20.682 3.31802C21.5259 4.16193 22 5.30653 22 6.5C22 7.69347 21.5259 8.83807 20.682 9.68198C19.8381 10.5259 18.6935 11 17.5 11ZM17.5 9C17.8283 9.00003 18.1534 8.93539 18.4568 8.80977C18.7601 8.68414 19.0358 8.5 19.2679 8.26785C19.5001 8.0357 19.6843 7.76009 19.8099 7.45676C19.9356 7.15343 20.0002 6.82832 20.0002 6.5C20.0002 6.17167 19.9356 5.84656 19.8099 5.54324C19.6843 5.23991 19.5001 4.9643 19.2679 4.73215C19.0358 4.5 18.7601 4.31585 18.4568 4.19023C18.1534 4.06461 17.8283 3.99997 17.5 4C16.837 4.00006 16.2012 4.26348 15.7324 4.73232C15.2636 5.20115 15.0002 5.837 15.0002 6.5C15.0002 7.163 15.2636 7.79885 15.7324 8.26768C16.2012 8.73651 16.837 8.99994 17.5 9ZM6.5 9C6.82832 9.00003 7.15344 8.93539 7.45678 8.80977C7.76012 8.68414 8.03575 8.5 8.26792 8.26785C8.50009 8.0357 8.68427 7.76009 8.80992 7.45676C8.93557 7.15343 9.00024 6.82832 9.00024 6.5C9.00024 6.17167 8.93557 5.84656 8.80992 5.54324C8.68427 5.23991 8.50009 4.9643 8.26792 4.73215C8.03575 4.5 7.76012 4.31585 7.45678 4.19023C7.15344 4.06461 6.82832 3.99997 6.5 4C5.837 4.00006 5.20118 4.26348 4.73239 4.73232C4.2636 5.20115 4.00024 5.837 4.00024 6.5C4.00024 7.163 4.2636 7.79885 4.73239 8.26768C5.20118 8.73651 5.837 8.99994 6.5 9ZM17.5 20C17.8283 20 18.1534 19.9354 18.4568 19.8098C18.7601 19.6841 19.0358 19.5 19.2679 19.2679C19.5001 19.0357 19.6843 18.7601 19.8099 18.4568C19.9356 18.1534 20.0002 17.8283 20.0002 17.5C20.0002 17.1717 19.9356 16.8466 19.8099 16.5432C19.6843 16.2399 19.5001 15.9643 19.2679 15.7321C19.0358 15.5 18.7601 15.3159 18.4568 15.1902C18.1534 15.0646 17.8283 15 17.5 15C16.837 15.0001 16.2012 15.2635 15.7324 15.7323C15.2636 16.2012 15.0002 16.837 15.0002 17.5C15.0002 18.163 15.2636 18.7988 15.7324 19.2677C16.2012 19.7365 16.837 19.9999 17.5 20ZM6.5 20C6.82832 20 7.15344 19.9354 7.45678 19.8098C7.76012 19.6841 8.03575 19.5 8.26792 19.2679C8.50009 19.0357 8.68427 18.7601 8.80992 18.4568C8.93557 18.1534 9.00024 17.8283 9.00024 17.5C9.00024 17.1717 8.93557 16.8466 8.80992 16.5432C8.68427 16.2399 8.50009 15.9643 8.26792 15.7321C8.03575 15.5 7.76012 15.3159 7.45678 15.1902C7.15344 15.0646 6.82832 15 6.5 15C5.837 15.0001 5.20118 15.2635 4.73239 15.7323C4.2636 16.2012 4.00024 16.837 4.00024 17.5C4.00024 18.163 4.2636 18.7988 4.73239 19.2677C5.20118 19.7365 5.837 19.9999 6.5 20Z" fill="#C3CFFF"/>
</svg>
