<svg width="24" height="24" viewBox="0 0 24 24" fill="none" xmlns="http://www.w3.org/2000/svg">
<g opacity="0.2">
<path d="M18.9992 21.4988H5.00097C3.6204 21.4988 2.50122 20.3797 2.50122 18.9991V5.00082C2.50122 3.6203 3.62037 2.50119 5.00097 2.50119H18.9992C20.3797 2.50119 21.4989 3.6203 21.4989 5.00082V18.9991C21.4989 20.3797 20.3798 21.4988 18.9992 21.4988ZM19.4991 5.50076C19.4991 4.94854 19.0514 4.50088 18.4992 4.50088H5.50082C4.94859 4.50088 4.50094 4.94854 4.50094 5.50076V18.4992C4.50094 19.0513 4.94859 19.499 5.50082 19.499H18.4992C19.0515 19.499 19.4991 19.0513 19.4991 18.4992L19.4991 5.50076ZM12 13.4998C8.68672 13.4998 6.00076 10.8138 6.00076 7.5005C6.00076 6.94828 6.44846 6.50057 7.00064 6.50057C7.55287 6.50057 8.00052 6.94828 8.00052 7.5005C8.00052 9.70938 9.7912 11.5 12 11.5C14.2089 11.5 15.9995 9.70938 15.9995 7.5005C15.9995 6.94828 16.4472 6.50057 16.9994 6.50057C17.5516 6.50057 17.9993 6.94828 17.9993 7.5005C17.9993 10.8138 15.3133 13.4998 12 13.4998Z" fill="white"/>
</g>
</svg>
